<svg width="32" height="33" viewBox="0 0 32 33" fill="none" xmlns="http://www.w3.org/2000/svg">
<rect x="0.286926" y="0.588196" width="31.6081" height="31.6081" rx="15.804" fill="url(#paint0_radial_3_759)"/>
<path fill-rule="evenodd" clip-rule="evenodd" d="M8.18909 16.3923C8.18909 13.2357 8.18909 11.6574 8.94126 10.5207C9.27715 10.013 9.71188 9.5783 10.2195 9.24241C11.3563 8.49023 12.9346 8.49023 16.0911 8.49023C19.2477 8.49023 20.8259 8.49023 21.9627 9.24241C22.4703 9.5783 22.9051 10.013 23.241 10.5207C23.9931 11.6574 23.9931 13.2357 23.9931 16.3923C23.9931 19.5488 23.9931 21.1271 23.241 22.2639C22.9051 22.7715 22.4703 23.2062 21.9627 23.5421C20.8259 24.2943 19.2477 24.2943 16.0911 24.2943C12.9346 24.2943 11.3563 24.2943 10.2195 23.5421C9.71188 23.2062 9.27715 22.7715 8.94126 22.2639C8.18909 21.1271 8.18909 19.5488 8.18909 16.3923ZM20.1818 16.3926C20.1818 18.6519 18.3502 20.4835 16.0908 20.4835C13.8314 20.4835 11.9998 18.6519 11.9998 16.3926C11.9998 14.1332 13.8314 12.3016 16.0908 12.3016C18.3502 12.3016 20.1818 14.1332 20.1818 16.3926ZM16.0908 19.0994C17.5858 19.0994 18.7977 17.8875 18.7977 16.3926C18.7977 14.8976 17.5858 13.6857 16.0908 13.6857C14.5959 13.6857 13.3839 14.8976 13.3839 16.3926C13.3839 17.8875 14.5959 19.0994 16.0908 19.0994ZM20.3435 13.0571C20.8744 13.0571 21.3048 12.6268 21.3048 12.0959C21.3048 11.565 20.8744 11.1346 20.3435 11.1346C19.8126 11.1346 19.3823 11.565 19.3823 12.0959C19.3823 12.6268 19.8126 13.0571 20.3435 13.0571Z" fill="white"/>
<defs>
<radialGradient id="paint0_radial_3_759" cx="0" cy="0" r="1" gradientUnits="userSpaceOnUse" gradientTransform="translate(8.68287 34.6308) rotate(-90) scale(31.326 29.1356)">
<stop stop-color="#FFDD55"/>
<stop offset="0.1" stop-color="#FFDD55"/>
<stop offset="0.5" stop-color="#FF543E"/>
<stop offset="1" stop-color="#C837AB"/>
</radialGradient>
</defs>
</svg>
