<svg width="32" height="33" viewBox="0 0 32 33" fill="none" xmlns="http://www.w3.org/2000/svg">
<rect x="0.105225" y="0.588196" width="31.6081" height="31.6081" rx="15.804" fill="#25D366"/>
<path fill-rule="evenodd" clip-rule="evenodd" d="M6.90674 16.3923C6.90674 11.4294 10.9437 7.3924 15.9067 7.3924V7.39254H15.9119C20.8748 7.39254 24.9118 11.4295 24.9118 16.3925C24.9118 21.3553 20.8748 25.3924 15.9119 25.3924C14.0812 25.3924 12.3828 24.8475 10.9595 23.9057L7.49926 25.0113L8.62098 21.6675C7.54167 20.1859 6.90674 18.3606 6.90674 16.3923ZM12.8221 11.5194C13.0866 11.5301 13.2189 11.5459 13.3934 11.9639C13.4498 12.1 13.5273 12.2879 13.6122 12.4939C13.8539 13.0804 14.1559 13.813 14.2029 13.9109C14.2664 14.0432 14.33 14.2232 14.2399 14.3977C14.1612 14.5651 14.0916 14.6455 13.9758 14.7794C13.9671 14.7894 13.9581 14.7998 13.9489 14.8105C13.8923 14.8762 13.8367 14.9351 13.7812 14.9938C13.707 15.0723 13.6331 15.1505 13.5574 15.2444C13.5553 15.2469 13.5531 15.2494 13.551 15.2519C13.4311 15.3926 13.3008 15.5454 13.4517 15.8053C13.605 16.0645 14.1341 16.9268 14.9119 17.6199C15.835 18.4408 16.5974 18.7491 16.9413 18.8881C16.9719 18.9005 16.9992 18.9116 17.0231 18.9215C17.2399 19.0116 17.4992 18.9904 17.658 18.821C17.83 18.6356 18.0368 18.3454 18.252 18.0435C18.2884 17.9925 18.325 17.9411 18.3617 17.8898C18.5415 17.6358 18.769 17.604 19.0071 17.6939C19.2505 17.7786 20.5364 18.4135 20.8008 18.5458C20.8548 18.5729 20.9051 18.597 20.9514 18.6193C21.132 18.7061 21.2529 18.7643 21.3034 18.8527C21.367 18.9638 21.367 19.4876 21.1501 20.1015C20.9331 20.7151 20.0706 21.2232 19.3828 21.3713C18.912 21.4718 18.2981 21.5513 16.2294 20.6941C13.7791 19.6795 12.1366 17.2987 11.8025 16.8144C11.7759 16.7759 11.7576 16.7493 11.7479 16.7365C11.7442 16.7313 11.7397 16.7253 11.7347 16.7184C11.5666 16.4886 10.6792 15.2753 10.6792 14.022C10.6792 12.7672 11.299 12.1373 11.5766 11.8552C11.5846 11.847 11.5923 11.8392 11.5997 11.8316C11.8167 11.6094 12.1764 11.5089 12.5205 11.5089C12.6211 11.5094 12.7217 11.5129 12.8221 11.5194Z" fill="white"/>
</svg>
