<svg width="32" height="33" viewBox="0 0 32 33" fill="none" xmlns="http://www.w3.org/2000/svg">
<rect x="0.114502" y="0.588196" width="31.6081" height="31.6081" rx="15.804" fill="#FF2532"/>
<path d="M16.3037 22.5204L12.7371 22.4537C11.5823 22.4305 10.4246 22.4769 9.29247 22.2362C7.57021 21.8767 7.4482 20.1138 7.32052 18.635C7.14461 16.556 7.21271 14.4393 7.54469 12.3777C7.7321 11.2209 8.46966 10.5306 9.61025 10.4555C13.4606 10.1829 17.3366 10.2152 21.1784 10.3424C21.5841 10.3541 21.9926 10.4178 22.3927 10.4903C24.3676 10.8441 24.4158 12.8419 24.5438 14.5237C24.6715 16.2228 24.6176 17.9307 24.3736 19.6182C24.1778 21.0155 23.8032 22.1872 22.2225 22.3003C20.2419 22.4482 18.3068 22.5673 16.3207 22.5294C16.3208 22.5204 16.3093 22.5204 16.3037 22.5204ZM14.2069 18.983C15.6994 18.1072 17.1634 17.2461 18.6474 16.3762C17.1521 15.5005 15.6908 14.6394 14.2069 13.7695V18.983Z" fill="white"/>
</svg>
